<svg width="418" height="510" viewBox="0 0 418 510" fill="none" xmlns="http://www.w3.org/2000/svg">
<ellipse opacity="0.1" cx="208.565" cy="448.167" rx="208.551" ry="61.73" fill="url(#paint0_linear)"/>
<path d="M207.187 231.551C209.124 232.301 213.849 233.239 217.249 230.989" stroke="#0462B9" stroke-width="1.5"/>
<path d="M227.372 231.551C229.309 232.301 234.034 233.239 237.434 230.989" stroke="#0462B9" stroke-width="1.5"/>
<path d="M213.999 224.426C217.312 224.426 219.663 225.562 221.173 226.799C221.464 227.011 221.71 227.28 221.897 227.588C222.099 228.058 222.162 228.575 222.079 229.079C221.839 231.589 220.831 233.964 219.194 235.881C218.841 236.296 218.438 236.736 218.413 237.278C218.375 238.024 219.051 238.586 219.658 239.018C220.264 239.451 220.593 239.738 221.499 240.051C222.714 240.471 223.029 240.451 223.624 240.395C224.147 240.399 225.249 240.239 225.624 240.051C225.999 239.864 226.999 239.865 227.187 238.833" stroke="#0462B9" stroke-width="1.5" stroke-linecap="round" stroke-linejoin="round"/>
<path d="M237.224 212.57C237.769 214.204 240.9 216.723 242.262 217.744C243.351 218.561 244.304 219.514 245.189 220.467C246.006 221.352 246.891 222.85 247.027 224.075" stroke="#0462B9" stroke-width="1.5" stroke-miterlimit="10" stroke-linecap="round" stroke-linejoin="round"/>
<path d="M243.624 219.105C243.896 224.143 244.168 229.181 244.441 234.218L244.168 234.627C243.215 235.648 243.079 235.92 242.262 237.078L242.058 237.963C242.058 240.549 242.058 243.068 242.058 245.655C240.696 247.153 234.638 248.106 232.8 247.357C231.438 246.812 230.349 245.723 229.055 244.974C226.877 243.681 224.154 243.545 221.771 244.498C217.891 243.272 213.806 244.838 211.015 246.404C209.79 247.085 208.701 247.97 207.407 248.446C206.114 248.923 205.773 248.991 204.548 248.31L204.344 247.289C204.344 244.634 204.412 240.005 204.412 237.35L204.344 236.873C204.003 235.512 202.37 235.852 202.233 234.423L202.029 233.129C202.029 229.385 202.029 226.117 201.961 222.305C201.961 220.944 201.961 219.514 202.506 218.289C202.914 217.267 203.663 216.382 204.412 215.565C206.318 213.455 208.428 211.209 211.22 210.936C212.513 210.8 213.874 211.141 215.1 211.481C220.886 213.183 226.809 215.634 232.8 214.885C234.365 214.681 235.999 214.204 236.952 212.911C237.429 212.298 237.633 211.549 237.769 210.8C238.246 208.281 237.769 205.558 236.408 203.38" stroke="#0462B9" stroke-width="1.5" stroke-miterlimit="10" stroke-linecap="round" stroke-linejoin="round"/>
<path d="M196.447 227.275C195.834 229.249 196.174 231.36 196.515 233.402C196.855 235.444 197.196 237.418 197.536 239.461C197.604 239.937 197.672 240.346 197.944 240.754C198.149 241.163 199.442 241.503 199.85 241.503" stroke="#0462B9" stroke-width="1.5" stroke-miterlimit="10" stroke-linecap="round" stroke-linejoin="round"/>
<path d="M246.483 239.665C247.3 239.188 248.049 237.963 248.049 237.078C248.117 233.878 248.321 230.679 248.321 227.411C248.321 226.594 247.572 225.982 247.096 225.709" stroke="#0462B9" stroke-width="1.5" stroke-miterlimit="10" stroke-linecap="round" stroke-linejoin="round"/>
<path d="M220.205 195.892C215.576 193.237 209.517 194.054 205.161 197.117C200.804 200.181 198.081 205.218 196.923 210.392C195.766 215.566 196.038 221.012 196.583 226.254V226.867C196.855 229.794 200.191 232.313 199.783 235.24V235.648C199.783 238.303 199.783 240.958 199.783 243.613C199.783 248.651 200.531 254.097 204.616 257.637C207.748 260.36 211.696 262.13 215.236 264.308C217.482 265.738 220.137 266.759 222.86 266.555C226.741 266.215 230.553 263.423 233.548 261.177C236.884 258.658 239.879 255.663 242.602 252.395C242.671 252.327 242.739 252.259 242.739 252.191C244.1 250.557 245.87 248.243 246.21 246.132L246.415 245.111C246.415 241.639 246.415 244.226 246.415 240.754V239.665C246.347 235.853 246.483 231.428 246.415 227.615C247.164 223.327 247.708 219.242 247.504 214.885C247.368 211.754 246.483 208.69 244.849 206.035C243.556 203.789 241.377 200.725 238.382 200.998C237.429 201.066 236.476 199.772 235.795 199.296C234.706 198.411 233.48 197.594 232.255 196.913C228.511 194.735 222.588 192.012 218.163 193.714" stroke="#0462B9" stroke-width="1.5" stroke-miterlimit="10" stroke-linecap="round" stroke-linejoin="round"/>
<path d="M231.37 252.19C230.349 251.782 229.123 251.918 228.034 251.714C226.332 251.374 224.698 250.829 223.133 250.148C222.724 249.944 222.316 249.74 221.839 249.808C221.227 249.876 220.682 250.284 220.137 250.489C219.389 250.829 218.64 251.033 217.891 251.305C216.121 251.782 214.351 252.054 212.513 251.986C212.036 251.986 211.56 251.986 211.151 252.259C213.738 254.641 217.074 256.275 220.614 256.275C224.29 256.343 229.123 255.118 231.37 252.19Z" stroke="#0462B9" stroke-width="1.5" stroke-miterlimit="10" stroke-linecap="round" stroke-linejoin="round"/>
<path d="M239.249 227.239C239.045 227.103 238.249 226.458 238.249 226.458C235.049 224.415 231.233 224.028 227.557 224.845" stroke="#0462B9" stroke-width="1.5" stroke-miterlimit="10" stroke-linecap="round" stroke-linejoin="round"/>
<path d="M206.108 227.077C209.58 225.171 210.187 224.426 214.687 224.426" stroke="#0462B9" stroke-width="1.5" stroke-miterlimit="10" stroke-linecap="round" stroke-linejoin="round"/>
<path d="M206.862 259.202C206.862 261.789 207.066 264.376 207.066 266.963C207.066 268.12 207.135 269.55 206.862 270.639C206.522 271.796 205.773 272.273 204.752 273.022C200.872 275.881 196.515 278.059 191.886 279.353C188.346 280.306 184.669 280.851 181.334 282.28C179.836 282.893 178.475 283.71 176.977 284.391C174.05 285.684 170.85 286.365 167.65 286.773C166.085 286.977 164.519 287.045 162.953 287.114C161.456 287.182 160.366 286.841 159.345 288.067C157.984 289.7 156.894 291.675 155.737 293.445C153.286 297.189 150.904 301.001 148.317 304.677C146.547 307.196 144.709 309.715 143.211 312.438C140.556 317.067 138.718 322.105 135.791 326.53C134.429 328.64 132.864 330.546 131.502 332.588C129.256 335.992 127.758 338.579 126.192 342.323" stroke="#0462B9" stroke-width="1.5" stroke-miterlimit="10" stroke-linecap="round" stroke-linejoin="round"/>
<path d="M269.628 386.436H163.906C160.162 386.436 157.099 383.373 157.099 379.629V308.149C157.099 304.405 160.162 301.341 163.906 301.341H269.56C273.304 301.341 276.368 304.405 276.368 308.149V379.629C276.436 383.373 273.373 386.436 269.628 386.436Z" stroke="#0462B9" stroke-width="1.5" stroke-miterlimit="10" stroke-linecap="round" stroke-linejoin="round"/>
<path d="M273.032 386.437H160.502C158.596 386.437 157.099 387.934 157.099 389.84C157.099 391.746 158.596 393.244 160.502 393.244H272.964C274.87 393.244 276.368 391.746 276.368 389.84C276.436 387.934 274.87 386.437 273.032 386.437Z" stroke="#0462B9" stroke-width="1.5" stroke-miterlimit="10" stroke-linecap="round" stroke-linejoin="round"/>
<path d="M276.845 364.789C288.213 360.84 299.99 358.389 311.768 355.939C311.836 355.939 311.563 354.032 311.631 353.76C311.699 353.216 311.495 352.671 311.223 352.126C305.232 337.967 299.242 323.875 293.251 309.715C290.732 303.792 288.962 297.597 286.239 291.743C285.558 290.313 284.809 288.884 284.061 287.522C283.039 285.888 282.699 285.003 280.725 284.867C277.389 284.595 273.849 285.276 270.582 284.186C269.016 283.642 267.654 282.757 266.225 282.008C260.03 278.945 252.746 279.421 246.074 277.583C242.806 276.698 239.743 275.2 237.02 273.226C236.544 272.886 235.999 272.477 235.727 271.933C235.454 271.456 235.454 270.844 235.386 270.299C235.182 266.895 235.182 262.879 235.522 259.475" stroke="#0462B9" stroke-width="1.5" stroke-miterlimit="10" stroke-linecap="round" stroke-linejoin="round"/>
<path d="M276.504 390.998C286.58 393.244 297.131 390.93 307.002 387.798C308.772 387.254 310.679 386.505 311.564 384.871C312.449 383.237 312.04 381.263 311.632 379.425C309.794 371.937 307.751 364.448 305.641 357.028" stroke="#0462B9" stroke-width="1.5" stroke-miterlimit="10" stroke-linecap="round" stroke-linejoin="round"/>
<path d="M276.368 369.758C280.521 368.192 284.809 367.171 289.234 366.626" stroke="#0462B9" stroke-width="1.5" stroke-miterlimit="10" stroke-linecap="round" stroke-linejoin="round"/>
<path d="M280.248 368.056C279.704 366.831 279.227 365.605 278.683 364.38" stroke="#0462B9" stroke-width="1.5" stroke-miterlimit="10" stroke-linecap="round" stroke-linejoin="round"/>
<path d="M194.949 278.332C196.651 281.599 201.552 283.846 204.956 285.071C208.428 286.297 212.104 286.637 215.78 286.909C221.431 287.318 227.217 287.658 232.799 286.705C238.381 285.752 245.053 282.552 248.797 278.264" stroke="#0462B9" stroke-width="1.5" stroke-miterlimit="10" stroke-linecap="round" stroke-linejoin="round"/>
<path d="M265.476 393.244C288.009 401.209 294.136 406.519 315.512 417.139C318.575 418.705 321.707 420.27 324.43 422.313C329.127 425.921 332.735 431.094 333.688 436.949C334.641 442.804 332.667 449.203 328.106 452.947C324.974 455.534 321.026 456.691 317.078 457.508C309.93 459.006 302.509 459.346 295.225 458.665C286.511 457.78 278.138 455.398 269.629 453.287C247.027 447.637 225.992 445.254 202.982 441.714" stroke="#0462B9" stroke-width="1.5" stroke-miterlimit="10" stroke-linecap="round" stroke-linejoin="round"/>
<path d="M200.191 437.697C200.94 439.195 201.893 440.557 202.982 441.782C203.595 440.216 203.322 438.514 203.05 436.812C201.825 430.618 199.987 424.15 197.74 418.16C230.621 419.862 267.314 421.563 300.195 423.265C309.657 423.742 313.401 421.495 321.571 426.397" stroke="#0462B9" stroke-width="1.5" stroke-miterlimit="10" stroke-linecap="round" stroke-linejoin="round"/>
<path d="M157.099 361.384C148.589 355.325 139.399 349.403 130.072 344.569C119.793 339.328 106.859 331.158 97.1236 335.992L95.2175 337.217C90.7925 340.008 86.6399 345.114 86.8441 350.356C87.1165 358.593 92.7668 366.83 96.579 373.978C109.445 398.077 124.967 421.427 143.824 441.305L143.96 441.442C152.197 442.463 160.843 437.425 164.042 429.801V429.528C153.423 413.803 145.117 396.579 136.88 379.492C131.502 368.396 130.821 363.426 125.443 352.33" stroke="#0462B9" stroke-width="1.5" stroke-miterlimit="10" stroke-linecap="round" stroke-linejoin="round"/>
<path d="M148.453 441.578C152.061 446.82 152.674 452.538 150.699 457.916C147.432 466.971 144.777 479.769 139.943 488.074C138.446 490.661 137.084 493.793 138.378 496.447C139.058 497.945 140.556 498.966 142.054 499.511C145.798 500.872 147.84 497.06 151.176 494.882C154.512 492.771 156.214 487.461 158.664 484.398C166.289 474.731 173.233 464.588 179.496 454.036C180.108 453.015 180.721 451.926 180.857 450.768C181.061 448.658 179.632 446.616 177.862 445.39C176.092 444.165 173.981 443.552 172.075 442.599C167.582 440.489 164.655 437.221 162.545 432.728" stroke="#0462B9" stroke-width="1.5" stroke-miterlimit="10" stroke-linecap="round" stroke-linejoin="round"/>
<path d="M198.216 419.522C193.451 419.998 191.068 419.453 187.46 417.547C182.899 415.165 176.568 408.834 171.394 414.075C168.944 416.526 169.556 420.679 169.761 423.742C170.101 429.256 170.918 436.745 171.258 442.259" stroke="#0462B9" stroke-width="1.5" stroke-miterlimit="10" stroke-linecap="round" stroke-linejoin="round"/>
<path d="M203.05 436.881C197.808 437.289 192.362 438.651 190.524 443.62C188.686 448.59 188.005 456.01 187.188 461.184C186.439 465.949 182.627 475.616 180.721 480.041C180.381 480.858 179.904 481.743 179.019 481.879C178.338 482.015 177.658 481.539 177.113 481.062C173.165 477.59 174.73 467.651 174.39 462.409" stroke="#0462B9" stroke-width="1.5" stroke-miterlimit="10" stroke-linecap="round" stroke-linejoin="round"/>
<path d="M153.354 412.033C158.188 413.939 164.791 416.594 169.557 418.568" stroke="#0462B9" stroke-width="1.5" stroke-miterlimit="10" stroke-linecap="round" stroke-linejoin="round"/>
<path d="M246.278 19.2346C255.128 20.46 263.91 22.23 272.488 24.8849C287.873 29.5822 302.713 37.8875 314.831 48.3712" stroke="#0462B9" stroke-width="1.5" stroke-miterlimit="10" stroke-linecap="round" stroke-linejoin="round"/>
<path d="M220.069 17.26C225.924 17.3962 231.846 17.6685 237.701 18.2131" stroke="#0462B9" stroke-width="1.5" stroke-miterlimit="10" stroke-linecap="round" stroke-linejoin="round"/>
<path d="M96.8513 53.9529C99.3021 51.5702 101.889 49.3237 104.544 47.2134C112.373 41.0185 120.95 35.9808 129.936 31.9644" stroke="#0462B9" stroke-width="1.5" stroke-miterlimit="10" stroke-linecap="round" stroke-linejoin="round"/>
<path d="M71.5955 92.9611C75.4077 82.3412 81.058 72.4021 88.1379 63.5522" stroke="#0462B9" stroke-width="1.5" stroke-miterlimit="10" stroke-linecap="round" stroke-linejoin="round"/>
<path d="M66.0129 123.186C66.081 120.259 66.2172 117.4 66.5575 114.541" stroke="#0462B9" stroke-width="1.5" stroke-miterlimit="10" stroke-linecap="round" stroke-linejoin="round"/>
<path d="M71.4588 155.659C71.1865 154.91 70.9141 154.093 70.6418 153.344" stroke="#0462B9" stroke-width="1.5" stroke-miterlimit="10" stroke-linecap="round" stroke-linejoin="round"/>
<path d="M83.8487 178.668C81.6703 175.809 79.7641 172.814 77.9941 169.682" stroke="#0462B9" stroke-width="1.5" stroke-miterlimit="10" stroke-linecap="round" stroke-linejoin="round"/>
<path d="M196.447 224.824C181.606 224.415 169.012 223.53 163.974 222.441C151.925 219.922 140.08 216.178 128.779 211.345C118.023 206.716 107.539 201.065 98.4854 193.713" stroke="#0462B9" stroke-width="1.5" stroke-miterlimit="10" stroke-linecap="round" stroke-linejoin="round"/>
<path d="M247.027 222.373C261.595 220.535 272.76 215.702 284.945 207.601C286.035 206.92 287.124 206.171 288.349 206.103C289.847 206.035 291.208 206.852 292.366 207.805C297.267 211.753 300.467 217.676 301.148 223.939C301.556 227.683 300.535 231.359 299.718 234.967C299.105 237.622 298.016 241.571 299.105 244.158C299.173 244.362 299.309 244.566 299.514 244.634C299.718 244.702 299.922 244.702 300.126 244.702C302.577 244.294 304.007 241.979 304.96 239.869C309.861 229.045 309.997 217.199 310.27 205.558C316.601 199.091 322.387 192.011 327.357 184.455" stroke="#0462B9" stroke-width="1.5" stroke-miterlimit="10" stroke-linecap="round" stroke-linejoin="round"/>
<path d="M259.009 167.028H203.254C201.348 167.028 199.851 165.462 199.851 163.624C199.851 161.718 201.416 160.22 203.254 160.22H252.337" stroke="#0462B9" stroke-width="1.5" stroke-miterlimit="10" stroke-linecap="round" stroke-linejoin="round"/>
<path d="M251.997 181.119H203.254C201.348 181.119 199.851 179.553 199.851 177.715C199.851 175.809 201.416 174.312 203.254 174.312H251.997C253.903 174.312 255.401 175.877 255.401 177.715C255.401 179.621 253.835 181.119 251.997 181.119Z" stroke="#0462B9" stroke-width="1.5" stroke-miterlimit="10" stroke-linecap="round" stroke-linejoin="round"/>
<path d="M206.93 196.028H203.254C201.348 196.028 199.851 194.462 199.851 192.624C199.851 190.718 201.416 189.22 203.254 189.22H284.061C285.967 189.22 287.464 190.786 287.464 192.624C287.464 194.53 285.899 196.028 284.061 196.028H230.825" stroke="#0462B9" stroke-width="1.5" stroke-miterlimit="10" stroke-linecap="round" stroke-linejoin="round"/>
<path d="M97.6687 40.1337C104.963 40.1337 110.875 34.2209 110.875 26.927C110.875 19.6331 104.963 13.7202 97.6687 13.7202C90.3748 13.7202 84.4619 19.6331 84.4619 26.927C84.4619 34.2209 90.3748 40.1337 97.6687 40.1337Z" stroke="#0462B9" stroke-width="1.5" stroke-miterlimit="10" stroke-linecap="round" stroke-linejoin="round"/>
<path d="M91.4735 64.4365C95.1204 64.4365 98.0769 61.4801 98.0769 57.8331C98.0769 54.1862 95.1204 51.2297 91.4735 51.2297C87.8265 51.2297 84.8701 54.1862 84.8701 57.8331C84.8701 61.4801 87.8265 64.4365 91.4735 64.4365Z" stroke="#0462B9" stroke-width="1.5" stroke-miterlimit="10" stroke-linecap="round" stroke-linejoin="round"/>
<path d="M335.73 31.8285C343.024 31.8285 348.937 25.9157 348.937 18.6218C348.937 11.3279 343.024 5.41504 335.73 5.41504C328.436 5.41504 322.523 11.3279 322.523 18.6218C322.523 25.9157 328.436 31.8285 335.73 31.8285Z" stroke="#0462B9" stroke-width="1.5" stroke-miterlimit="10" stroke-linecap="round" stroke-linejoin="round"/>
<path d="M304.824 19.0302C308.471 19.0302 311.427 16.0738 311.427 12.4269C311.427 8.77992 308.471 5.82349 304.824 5.82349C301.177 5.82349 298.221 8.77992 298.221 12.4269C298.221 16.0738 301.177 19.0302 304.824 19.0302Z" stroke="#0462B9" stroke-width="1.5" stroke-miterlimit="10" stroke-linecap="round" stroke-linejoin="round"/>
<path d="M116.049 62.3944C118.568 62.3944 120.61 60.3523 120.61 57.8333C120.61 55.3143 118.568 53.2722 116.049 53.2722C113.53 53.2722 111.488 55.3143 111.488 57.8333C111.488 60.3523 113.53 62.3944 116.049 62.3944Z" stroke="#0462B9" stroke-width="1.5" stroke-miterlimit="10" stroke-linecap="round" stroke-linejoin="round"/>
<path d="M242.126 21.8216C244.645 21.8216 246.687 19.7796 246.687 17.2606C246.687 14.7415 244.645 12.6995 242.126 12.6995C239.607 12.6995 237.564 14.7415 237.564 17.2606C237.564 19.7796 239.607 21.8216 242.126 21.8216Z" stroke="#0462B9" stroke-width="1.5" stroke-miterlimit="10" stroke-linecap="round" stroke-linejoin="round"/>
<path d="M235.318 80.7069H176.773C173.029 80.7069 169.965 77.6435 169.965 73.8993V36.0491C169.965 32.3049 173.029 29.2415 176.773 29.2415H235.318C239.063 29.2415 242.126 32.3049 242.126 36.0491V73.8993C242.126 77.7116 239.063 80.7069 235.318 80.7069Z" stroke="#317EF1" stroke-width="1.5" stroke-miterlimit="10" stroke-linecap="round" stroke-linejoin="round"/>
<path d="M208.36 54.157H203.731C202.574 54.157 201.689 53.2721 201.689 52.1148V45.7156C201.689 44.5583 202.574 43.6733 203.731 43.6733H208.36C209.517 43.6733 210.402 44.5583 210.402 45.7156V52.1148C210.402 53.2721 209.517 54.157 208.36 54.157Z" stroke="#317EF1" stroke-width="1.5" stroke-miterlimit="10" stroke-linecap="round" stroke-linejoin="round"/>
<path d="M207.407 51.4342H204.684C204.276 51.4342 204.003 51.1618 204.003 50.7534V47.1454C204.003 46.7369 204.276 46.4646 204.684 46.4646H207.407C207.816 46.4646 208.088 46.7369 208.088 47.1454V50.7534C208.088 51.0938 207.816 51.4342 207.407 51.4342Z" stroke="#317EF1" stroke-width="1.5" stroke-miterlimit="10" stroke-linecap="round" stroke-linejoin="round"/>
<path d="M210.403 49.2557H238.858C240.696 49.2557 242.126 47.758 242.126 45.988V43.8096" stroke="#317EF1" stroke-width="1.5" stroke-miterlimit="10" stroke-linecap="round" stroke-linejoin="round"/>
<path d="M204.003 49.2556H208.088" stroke="#317EF1" stroke-width="1.5" stroke-miterlimit="10" stroke-linecap="round" stroke-linejoin="round"/>
<path d="M170.033 43.7417V45.9201C170.033 47.7582 171.531 49.1878 173.301 49.1878H201.757" stroke="#317EF1" stroke-width="1.5" stroke-miterlimit="10" stroke-linecap="round" stroke-linejoin="round"/>
<path d="M193.724 29.3097V26.8589C193.724 25.9739 194.472 25.2251 195.357 25.2251H216.801C217.686 25.2251 218.435 25.9739 218.435 26.8589V29.3097" stroke="#317EF1" stroke-width="1.5" stroke-miterlimit="10" stroke-linecap="round" stroke-linejoin="round"/>
<path d="M190.32 29.3095V24.5442C190.32 23.3869 191.273 22.4338 192.43 22.4338H219.661C220.818 22.4338 221.771 23.3869 221.771 24.5442V29.3095" stroke="#317EF1" stroke-width="1.5" stroke-miterlimit="10" stroke-linecap="round" stroke-linejoin="round"/>
<path d="M222.52 29.3095C222.452 25.293 221.635 21.2765 220.069 17.5323C215.985 7.93362 205.978 0.717556 195.562 1.33024C185.146 1.94292 175.48 11.5417 176.228 21.9573C176.977 11.5417 167.242 1.94292 156.895 1.33024C146.479 0.717556 136.472 7.93362 132.387 17.5323C128.303 27.1311 129.596 38.4998 134.294 47.8262C138.991 57.1526 146.956 64.5048 155.669 70.1551C162.069 74.3078 172.212 79.0731 172.348 79.0731" stroke="#317EF1" stroke-width="1.5" stroke-miterlimit="10" stroke-linecap="round" stroke-linejoin="round"/>
<path d="M309.521 94.1175C304.892 92.2114 300.807 91.6667 296.859 91.0541C295.77 90.8498 294.68 90.7137 293.591 90.986C292.502 91.2583 291.481 92.0752 291.345 93.1644C291.14 94.594 292.366 95.8194 293.591 96.6363C299.514 100.857 306.594 103.376 313.878 103.648C315.58 103.716 317.622 103.512 318.371 101.946C319.256 100.176 317.554 98.134 315.784 97.1809C314.014 96.2278 311.768 94.7982 309.521 94.1175Z" stroke="#317EF1" stroke-width="1.5" stroke-miterlimit="10" stroke-linecap="round" stroke-linejoin="round"/>
<path d="M291.821 92.0076C288.826 94.2541 285.49 96.7048 281.95 97.9983" stroke="#317EF1" stroke-width="1.5" stroke-miterlimit="10" stroke-linecap="round" stroke-linejoin="round"/>
<path d="M317.894 102.763C316.056 106.303 316.124 110.796 318.098 114.2" stroke="#317EF1" stroke-width="1.5" stroke-miterlimit="10" stroke-linecap="round" stroke-linejoin="round"/>
<path d="M266.565 101.538C265.884 100.721 264.795 99.9039 263.91 100.449C262.957 101.061 263.433 102.559 264.114 103.444C264.795 104.329 265.952 105.622 267.041 106.167C267.382 106.303 267.858 106.303 268.131 106.031C268.335 105.827 268.335 105.554 268.403 105.282C268.471 104.669 268.335 103.989 268.063 103.444" stroke="#317EF1" stroke-width="1.5" stroke-miterlimit="10" stroke-linecap="round" stroke-linejoin="round"/>
<path d="M354.723 84.7912C357.31 88.195 362.008 92.3476 363.029 93.0964C363.778 93.6411 364.663 94.1857 365.548 93.8453C366.909 93.3007 366.637 91.3265 366.024 90.033C364.186 86.0846 361.191 82.6127 357.31 80.6385C356.153 80.0259 354.723 79.6174 353.566 80.2301C352.341 80.8428 353.158 82.6808 354.723 84.7912Z" stroke="#317EF1" stroke-width="1.5" stroke-miterlimit="10" stroke-linecap="round" stroke-linejoin="round"/>
<path d="M309.317 48.3706C307.274 48.5748 304.279 48.7791 302.237 48.9833C298.901 49.3237 295.293 49.8002 293.046 52.319C292.774 52.5913 292.502 52.9317 292.502 53.3402C292.434 54.4294 293.863 54.9059 295.021 54.974C303.258 55.4505 311.495 55.3824 319.664 54.7698C322.115 54.5655 324.906 54.2252 326.54 52.3871C327.221 51.5702 327.629 50.3448 327.084 49.4598C326.54 48.6429 325.383 48.5068 324.361 48.4387C319.324 48.3025 314.354 48.4387 309.317 48.3706Z" stroke="#317EF1" stroke-width="1.5" stroke-miterlimit="10" stroke-linecap="round" stroke-linejoin="round"/>
<path d="M298.289 55.3145C297.063 56.6079 297.403 58.7183 296.655 60.4202C295.702 62.4624 293.251 63.2794 291.141 64.1643C289.03 64.9813 286.716 66.547 286.716 68.7935" stroke="#317EF1" stroke-width="1.5" stroke-miterlimit="10" stroke-linecap="round" stroke-linejoin="round"/>
<path d="M327.357 50.0728C327.902 54.8381 331.101 55.0423 333.007 57.9015C335.39 61.5095 337.977 65.1856 341.653 67.3641C342.674 67.9768 343.763 68.3852 344.716 69.066C347.167 70.6998 348.665 73.6271 348.597 76.5543C348.597 77.3713 348.46 78.2562 348.052 79.0051C346.895 81.1154 344.104 81.66 341.721 81.9323C339.338 82.2046 336.547 82.545 335.186 84.5192" stroke="#317EF1" stroke-width="1.5" stroke-miterlimit="10" stroke-linecap="round" stroke-linejoin="round"/>
<path d="M346.214 70.3594C349.413 73.2186 352.341 76.4181 354.927 79.9581" stroke="#317EF1" stroke-width="1.5" stroke-miterlimit="10" stroke-linecap="round" stroke-linejoin="round"/>
<path d="M339.542 177.919C339.27 178.123 338.998 178.327 338.725 178.532C337.16 179.689 335.594 180.914 334.232 182.276C333.62 182.889 330.42 185.612 331.169 186.633C331.373 186.973 331.85 186.905 332.258 186.837C334.573 186.36 336.683 185.203 338.725 184.046C340.291 183.161 341.857 182.276 343.423 181.391C346.214 179.757 349.209 178.055 350.843 175.264C351.456 174.243 351.66 172.677 350.571 172.201C349.89 171.928 349.141 172.269 348.528 172.677C345.465 174.311 342.402 176.013 339.542 177.919Z" stroke="#317EF1" stroke-width="1.5" stroke-miterlimit="10" stroke-linecap="round" stroke-linejoin="round"/>
<path d="M351.251 173.29C350.707 170.022 351.387 166.618 353.089 163.759" stroke="#317EF1" stroke-width="1.5" stroke-miterlimit="10" stroke-linecap="round" stroke-linejoin="round"/>
<path d="M250.635 75.9413C250.023 76.6221 249.41 77.3029 248.865 77.9156C247.776 79.209 246.823 80.6386 246.074 82.1363C245.666 82.8851 245.325 83.6339 245.053 84.4509C244.917 84.8593 244.713 85.6082 244.168 86.9016C250.295 84.1786 254.992 77.9156 256.422 71.176C254.243 72.2652 252.337 74.1033 250.635 75.9413Z" stroke="#317EF1" stroke-width="1.5" stroke-miterlimit="10" stroke-linecap="round" stroke-linejoin="round"/>
<path d="M256.63 71.1654C256.971 71.9142 257.851 71.993 258.396 72.1972C258.94 72.3334 259.757 71.9249 260.234 72.1972C262.208 73.4226 264.455 72.0611 266.361 70.6996C268.267 69.338 270.309 70.3592 272.147 68.9296C274.394 67.0915 275.483 64.845 278.41 64.9812C281.95 65.1854 285.218 62.4624 287.873 60.4882C290.255 58.7863 292.91 56.4036 292.502 53.4763" stroke="#317EF1" stroke-width="1.5" stroke-miterlimit="10" stroke-linecap="round" stroke-linejoin="round"/>
<path d="M244.168 86.9019C245.938 94.5264 243.487 103.649 240.764 111.001C239.334 114.881 237.837 118.761 237.701 122.914C237.633 126.114 238.381 129.313 239.266 132.377C241.036 138.504 243.351 144.426 246.074 150.145C247.231 152.527 248.525 156.135 251.18 155.931C250.09 152.391 248.744 146.684 243.722 144.908" stroke="#317EF1" stroke-width="1.5" stroke-miterlimit="10" stroke-linecap="round" stroke-linejoin="round"/>
<path d="M248.729 154.841C252.473 161.853 258.736 166.823 264.591 171.996C267.382 174.447 269.628 177.306 272.896 179.076C276.708 181.187 280.861 182.48 285.082 183.297C292.502 184.795 300.807 185.612 308.432 184.727C312.244 184.318 316.056 183.365 319.937 183.365C323.817 183.365 328.446 183.91 331.169 186.633" stroke="#317EF1" stroke-width="1.5" stroke-miterlimit="10" stroke-linecap="round" stroke-linejoin="round"/>
<path d="M251.18 155.863C252.882 156.816 254.583 157.837 256.285 158.79C257.238 159.334 258.123 159.879 258.872 160.628C260.71 162.534 261.391 165.734 263.842 166.619C264.931 167.027 266.156 166.891 267.314 166.755C271.126 166.414 275.074 166.755 278.75 167.844" stroke="#317EF1" stroke-width="1.5" stroke-miterlimit="10" stroke-linecap="round" stroke-linejoin="round"/>
<path d="M299.037 166.278C298.492 166.482 298.016 166.618 297.471 166.823C295.565 167.503 293.659 168.32 291.821 169.137C290.255 169.818 288.757 170.499 287.736 171.928C287.532 172.201 287.396 172.473 287.464 172.813C287.6 173.29 288.349 173.29 288.826 173.222C292.502 172.405 296.178 171.384 299.786 170.226C303.053 169.137 306.661 168.048 309.453 166.006C309.861 165.733 310.201 165.393 310.406 164.985C310.61 164.576 310.542 163.963 310.133 163.759C309.793 163.555 309.453 163.623 309.044 163.691C305.64 164.304 302.305 165.189 299.037 166.278Z" stroke="#317EF1" stroke-width="1.5" stroke-miterlimit="10" stroke-linecap="round" stroke-linejoin="round"/>
<path d="M310.201 163.828C308.295 160.628 309.044 158.109 310.746 154.773" stroke="#317EF1" stroke-width="1.5" stroke-miterlimit="10" stroke-linecap="round" stroke-linejoin="round"/>
<path d="M287.464 172.813C286.988 170.158 285.082 167.64 283.04 165.87" stroke="#317EF1" stroke-width="1.5" stroke-miterlimit="10" stroke-linecap="round" stroke-linejoin="round"/>
<path d="M246.074 125.705C246.006 126.113 246.006 126.522 246.074 126.93C246.755 131.832 250.499 135.916 254.039 139.184C254.311 139.388 254.516 139.66 254.856 139.728C255.741 140.001 256.286 139.116 256.354 138.367C256.354 137.482 256.081 136.529 255.877 135.644C255.537 134.214 255.06 132.853 254.448 131.559C253.154 128.972 251.316 126.658 248.933 124.888C247.912 124.139 246.551 124.003 246.142 125.5C246.074 125.432 246.074 125.569 246.074 125.705Z" stroke="#317EF1" stroke-width="1.5" stroke-miterlimit="10" stroke-linecap="round" stroke-linejoin="round"/>
<path d="M246.551 124.548C247.436 124.003 248.117 122.233 248.593 121.28C249.478 119.578 249.342 117.536 249.274 115.562" stroke="#317EF1" stroke-width="1.5" stroke-miterlimit="10" stroke-linecap="round" stroke-linejoin="round"/>
<path d="M255.4 139.729C257.579 138.572 258.804 136.393 260.642 135.985C262.548 135.576 264.046 137.414 265.408 138.844C265.748 139.184 266.429 139.32 266.429 138.844" stroke="#317EF1" stroke-width="1.5" stroke-miterlimit="10" stroke-linecap="round" stroke-linejoin="round"/>
<path d="M257.579 129.313C257.239 128.019 258.26 126.59 259.553 126.385C260.234 126.317 260.915 126.521 261.596 126.59C263.229 126.862 264.999 126.521 266.361 125.636" stroke="#317EF1" stroke-width="1.5" stroke-miterlimit="10" stroke-linecap="round" stroke-linejoin="round"/>
<path d="M327.765 154.705C327.084 152.186 328.718 149.259 331.169 148.442C333.143 147.761 335.254 148.306 337.296 148.238C339.338 148.17 341.721 147.012 341.857 144.97" stroke="#317EF1" stroke-width="1.5" stroke-miterlimit="10" stroke-linecap="round" stroke-linejoin="round"/>
<path d="M360.578 112.158C361.667 115.426 361.803 118.897 361.259 122.301C360.986 124.003 360.578 125.637 360.033 127.271C359.557 128.7 359.148 130.334 357.991 131.355C356.493 132.649 355.064 131.015 354.723 129.517C353.906 126.318 354.247 122.982 354.996 119.782C355.336 118.285 355.813 116.787 356.221 115.289C356.629 113.996 356.97 112.294 358.127 111.477C358.467 111.273 358.876 111.137 359.216 111.137C359.557 111.137 359.897 111.205 360.101 111.477C360.374 111.681 360.51 111.886 360.578 112.158Z" stroke="#317EF1" stroke-width="1.5" stroke-miterlimit="10" stroke-linecap="round" stroke-linejoin="round"/>
<path d="M359.761 111.205C358.74 110.251 356.017 110.047 354.723 110.251C353.362 110.524 351.728 110.524 350.911 109.435" stroke="#317EF1" stroke-width="1.5" stroke-miterlimit="10" stroke-linecap="round" stroke-linejoin="round"/>
<path d="M355.064 132.512C353.09 134.146 351.66 136.461 351.115 138.98C350.979 139.456 350.911 140.001 350.503 140.273C350.094 140.545 349.345 140.205 349.482 139.729" stroke="#317EF1" stroke-width="1.5" stroke-miterlimit="10" stroke-linecap="round" stroke-linejoin="round"/>
<path d="M353.293 130.334C351.592 130.675 349.958 131.423 348.596 132.445" stroke="#317EF1" stroke-width="1.5" stroke-miterlimit="10" stroke-linecap="round" stroke-linejoin="round"/>
<path d="M312.721 180.915C316.941 179.826 321.23 179.009 325.519 178.532" stroke="#317EF1" stroke-width="1.5" stroke-miterlimit="10" stroke-linecap="round" stroke-linejoin="round"/>
<path d="M323.613 172.473C326.88 172.95 330.761 173.154 333.007 170.703C333.892 169.682 334.369 168.321 335.526 167.64C336.343 167.163 337.296 167.095 338.045 166.687C339.883 165.734 340.155 163.283 340.223 161.241" stroke="#317EF1" stroke-width="1.5" stroke-miterlimit="10" stroke-linecap="round" stroke-linejoin="round"/>
<path d="M353.09 80.9114C352.341 82.0006 351.388 83.0217 350.162 83.4302C348.392 83.9748 346.214 83.1579 344.716 84.3152" stroke="#317EF1" stroke-width="1.5" stroke-miterlimit="10" stroke-linecap="round" stroke-linejoin="round"/>
<path d="M366.092 93.6411C366.092 94.458 366.092 95.2749 366.092 96.0919C366.092 96.2961 366.092 96.5003 366.024 96.6365C365.956 96.8407 365.819 96.9768 365.683 97.113C365.207 97.7938 365.411 98.7468 365.683 99.5637L366.092 101.061C370.993 115.425 371.742 131.151 366.841 144.834C365.275 149.123 363.301 153.344 360.305 156.816C356.833 160.9 355.404 159.675 352.681 164.304" stroke="#317EF1" stroke-width="1.5" stroke-miterlimit="10" stroke-linecap="round" stroke-linejoin="round"/>
<path d="M93.1754 113.588C92.835 112.09 92.4265 110.661 91.8819 109.299L98.213 102.56L97.0557 100.722L95.8984 98.8836L86.9804 101.539C85.9593 100.449 84.8701 99.3602 83.7128 98.4752L85.8232 89.4211L83.917 88.3999L82.0109 87.3788L75.6118 94.1183C74.1822 93.6418 72.7526 93.3014 71.2549 93.0972L68.5999 84.1792L66.4215 84.2473L64.243 84.3153L62.0646 93.3695C60.567 93.7098 59.1373 94.1183 57.7758 94.6629L51.0363 88.3318L49.1982 89.4891L47.3602 90.6464L50.0152 99.5644C48.9259 100.586 47.8367 101.675 46.9517 102.832L37.8976 100.722L36.8765 102.628L35.8553 104.534L42.5949 110.933C42.1183 112.363 41.778 113.792 41.5737 115.29L32.6558 117.945L32.7238 120.123L32.7919 122.302L41.846 124.48C42.1183 125.978 42.5949 127.407 43.1395 128.769L36.8084 135.509L37.9657 137.347L39.123 139.185L48.041 136.53C49.0621 137.619 50.1513 138.708 51.3086 139.593L49.1982 148.647L51.1044 149.668L53.0105 150.689L59.4096 143.95C60.8392 144.427 62.2689 144.767 63.7665 144.971L66.4215 153.889L68.5999 153.821L70.7783 153.753L72.9568 144.699C74.4545 144.358 75.8841 143.95 77.2456 143.405L83.9851 149.736L85.8232 148.579L87.6612 147.422L85.0062 138.504C86.0955 137.483 87.1847 136.394 88.0697 135.236L97.1238 137.347L98.1449 135.44L99.1661 133.534L92.4265 127.135C92.9031 125.706 93.2434 124.276 93.4477 122.778L102.366 120.123L102.298 117.945L102.229 115.766L93.1754 113.588ZM67.783 131.628C60.7712 131.832 54.9166 126.318 54.7805 119.306C54.5762 112.295 60.0904 106.508 67.1022 106.304C74.1141 106.1 79.9686 111.614 80.1048 118.626C80.309 125.569 74.7948 131.424 67.783 131.628Z" stroke="#317EF1" stroke-width="1.5" stroke-miterlimit="10" stroke-linecap="round" stroke-linejoin="round"/>
<path d="M67.4425 123.392C69.9239 123.392 71.9355 121.38 71.9355 118.899C71.9355 116.417 69.9239 114.406 67.4425 114.406C64.9611 114.406 62.9495 116.417 62.9495 118.899C62.9495 121.38 64.9611 123.392 67.4425 123.392Z" stroke="#317EF1" stroke-width="1.5" stroke-miterlimit="10" stroke-linecap="round" stroke-linejoin="round"/>
<path d="M67.4427 134.488C76.0525 134.488 83.0321 127.508 83.0321 118.898C83.0321 110.288 76.0525 103.309 67.4427 103.309C58.8329 103.309 51.8533 110.288 51.8533 118.898C51.8533 127.508 58.8329 134.488 67.4427 134.488Z" stroke="#317EF1" stroke-width="1.5" stroke-miterlimit="10" stroke-linecap="round" stroke-linejoin="round"/>
<path d="M148.657 162.331C157.68 162.331 164.995 155.016 164.995 145.993C164.995 136.969 157.68 129.654 148.657 129.654C139.634 129.654 132.319 136.969 132.319 145.993C132.319 155.016 139.634 162.331 148.657 162.331Z" stroke="#317EF1" stroke-width="1.5" stroke-miterlimit="10" stroke-linecap="round" stroke-linejoin="round"/>
<path d="M208.564 150.758V138.913L191.273 134.42C190.252 130.744 188.822 127.204 186.916 124.004L194.404 106.985L186.031 98.6116L170.646 107.666C167.378 105.828 163.906 104.33 160.23 103.309L153.559 86.0176H141.713L137.22 103.309C133.544 104.33 130.004 105.76 126.805 107.666L109.786 100.177L101.412 108.551L110.467 123.936C108.628 127.204 107.131 130.675 106.11 134.352L88.8184 141.023V152.868L106.11 157.361C107.131 161.037 108.56 164.577 110.467 167.777L102.978 184.796L111.352 193.169L126.737 184.115C130.004 185.953 133.476 187.451 137.152 188.472L143.824 205.763H155.669L160.162 188.472C163.838 187.451 167.378 186.021 170.578 184.115L187.597 191.604L195.97 183.23L186.916 167.845C188.754 164.577 190.252 161.105 191.273 157.429L208.564 150.758ZM148.657 178.601C130.617 178.601 115.981 163.965 115.981 145.925C115.981 127.884 130.617 113.248 148.657 113.248C166.697 113.248 181.334 127.884 181.334 145.925C181.334 164.033 166.697 178.601 148.657 178.601Z" stroke="#317EF1" stroke-width="1.5" stroke-miterlimit="10" stroke-linecap="round" stroke-linejoin="round"/>
<path d="M76.5645 184.524C80.7002 184.524 84.0529 181.171 84.0529 177.035C84.0529 172.9 80.7002 169.547 76.5645 169.547C72.4288 169.547 69.0762 172.9 69.0762 177.035C69.0762 181.171 72.4288 184.524 76.5645 184.524Z" stroke="#317EF1" stroke-width="1.5" stroke-miterlimit="10" stroke-linecap="round" stroke-linejoin="round"/>
<path d="M78.1305 149.601L72.6844 149.737L70.7783 157.702C69.0764 158.178 67.5107 158.927 66.0811 159.812L58.2523 156.544L54.5081 160.425L58.865 167.368C58.0481 168.866 57.4354 170.5 56.9589 172.202L49.1301 175.401L49.2663 180.847L57.2312 182.754C57.7077 184.456 58.4565 186.021 59.3415 187.451L56.0739 195.28L59.9542 199.024L66.898 194.735C68.3956 195.552 70.0295 196.165 71.7314 196.641L74.9309 204.47L80.377 204.334L82.2832 196.369C83.9851 195.892 85.5508 195.143 86.9804 194.258L94.8091 197.526L98.5533 193.646L94.2645 186.702C95.0815 185.204 95.6941 183.571 96.1707 181.869L103.999 178.669L103.863 173.223L95.8984 171.317C95.4218 169.615 94.673 168.049 93.788 166.62L97.0557 158.791L93.1753 155.047L86.2316 159.335C84.7339 158.519 83.1001 157.906 81.3982 157.429L78.1305 149.601ZM91.4734 176.695C91.6776 184.932 85.1423 191.74 76.8371 191.944C68.5999 192.148 61.7923 185.613 61.588 177.308C61.3838 169.07 67.9191 162.263 76.2244 162.059C84.5297 161.854 91.2692 168.458 91.4734 176.695Z" stroke="#317EF1" stroke-width="1.5" stroke-miterlimit="10" stroke-linecap="round" stroke-linejoin="round"/>
<defs>
<linearGradient id="paint0_linear" x1="208.565" y1="386.437" x2="208.565" y2="509.897" gradientUnits="userSpaceOnUse">
<stop stop-color="#317EF1"/>
<stop offset="1" stop-color="#317EF1" stop-opacity="0"/>
</linearGradient>
</defs>
</svg>
